<svg width="741" height="618" viewBox="0 0 741 618" fill="none" xmlns="http://www.w3.org/2000/svg">
<path opacity="0.1" d="M600.002 617.533C652.333 617.533 694.756 610.235 694.756 601.233C694.756 592.231 652.333 584.934 600.002 584.934C547.671 584.934 505.248 592.231 505.248 601.233C505.248 610.235 547.671 617.533 600.002 617.533Z" fill="#2ABBFE"/>
<path opacity="0.1" d="M313.11 595.216C390.585 595.216 453.392 590.773 453.392 585.292C453.392 579.812 390.585 575.369 313.11 575.369C235.635 575.369 172.828 579.812 172.828 585.292C172.828 590.773 235.635 595.216 313.11 595.216Z" fill="#2ABBFE"/>
<path opacity="0.1" d="M228.583 25.5128C253.706 3.12348 293.144 -1.43567 329.012 0.34973C441.747 5.92912 543.507 60.3759 631.534 121.932C663.416 144.25 694.772 168.233 715.456 198.928C757.564 261.401 745.074 347.977 686.523 399.411C666.596 416.946 642.453 430.345 617.657 442.245C573.58 463.407 525.996 480.392 475.988 485.222C440.312 488.673 404.19 485.868 368.721 481.062C269.631 467.623 172.366 437.901 90.8594 387.057C55.1035 364.739 21.3961 337.034 6.65853 300.975C-8.07901 264.916 1.35811 219.181 37.8632 197.828C53.0073 188.997 71.0207 185.011 88.6994 181.265C114.715 175.75 141.154 170.314 164.635 159.107C188.897 147.518 217.591 125.129 212.809 99.5113C207.628 72.005 203.491 47.8701 228.583 25.5128Z" fill="#2ABBFE"/>
<path d="M227.355 566.865C222.269 566.865 217.391 564.844 213.795 561.248C210.198 557.651 208.178 552.774 208.178 547.688V417.497H193.265V548.572C193.265 556.817 196.54 564.723 202.37 570.553C208.199 576.382 216.106 579.657 224.35 579.657H314.832V566.905L227.355 566.865Z" fill="#3A3768"/>
<path d="M320.411 508.895C322.033 509.405 323.395 510.521 324.213 512.011C327.274 517.216 332.072 520.571 337.476 520.571C346.706 520.571 354.214 510.792 354.214 498.716C354.214 486.641 346.714 476.909 337.508 476.909C333.164 476.909 329.203 479.077 326.23 482.64C325.102 484.003 324.147 485.499 323.384 487.095L323.225 488.044C323.225 488.044 319.662 491.088 314.808 488.291V417.496H245.687C245.128 416.764 244.759 415.905 244.613 414.995C244.467 414.086 244.549 413.154 244.85 412.284C245.367 410.665 246.482 409.305 247.967 408.482C253.172 405.421 256.535 400.623 256.535 395.219C256.535 385.989 246.747 378.48 234.68 378.48C222.613 378.48 212.825 385.965 212.825 395.219C212.825 399.563 215.001 403.532 218.564 406.505C219.925 407.628 221.419 408.581 223.011 409.342L223.107 409.502C224.152 410.513 224.845 411.833 225.085 413.268C225.325 414.703 225.098 416.176 224.438 417.472H208.178V547.687C208.178 552.773 210.198 557.651 213.795 561.248C217.391 564.844 222.269 566.864 227.355 566.864H314.832V510.09C315.564 509.4 316.471 508.924 317.455 508.714C318.438 508.503 319.461 508.565 320.411 508.895Z" fill="#2ABBFE"/>
<path d="M193.002 248.449H190.635V252.307H193.002V248.449Z" fill="#3A3768"/>
<path d="M207.915 248.449H194.979V252.307H207.915V248.449Z" fill="#3A3768"/>
<path d="M194.979 248.449H193.002V252.307H194.979V248.449Z" fill="#3A3768"/>
<path d="M192.46 270.934H193.002V252.299H190.611V269.109C190.61 269.351 190.657 269.591 190.75 269.814C190.843 270.038 190.979 270.24 191.152 270.41C191.324 270.58 191.528 270.714 191.753 270.804C191.978 270.894 192.218 270.938 192.46 270.934Z" fill="#3A3768"/>
<path d="M207.915 252.299H194.979V269.109C194.979 269.349 194.931 269.587 194.839 269.809C194.747 270.031 194.612 270.233 194.441 270.402C194.271 270.572 194.069 270.706 193.846 270.797C193.624 270.889 193.386 270.935 193.145 270.934H193.002V414.739H207.915V252.299Z" fill="#3A3768"/>
<path d="M193.002 270.934H193.145C193.386 270.935 193.624 270.889 193.846 270.797C194.069 270.706 194.271 270.572 194.441 270.402C194.612 270.233 194.747 270.031 194.839 269.809C194.931 269.587 194.979 269.349 194.979 269.109V252.299H193.002V270.934Z" fill="#3A3768"/>
<path d="M210.202 397.562C210.202 385.136 221.042 375.069 234.409 375.069C247.776 375.069 258.623 385.136 258.623 397.562C258.601 400.886 257.82 404.161 256.341 407.137C254.862 410.114 252.723 412.714 250.087 414.739H314.967V344.893C315.709 344.2 316.626 343.722 317.619 343.511C318.612 343.301 319.643 343.365 320.602 343.697C322.225 344.209 323.589 345.325 324.412 346.814C327.465 352.018 332.263 355.374 337.675 355.374C346.905 355.374 354.413 345.594 354.413 333.527C354.413 321.459 346.937 311.671 337.675 311.671C333.323 311.671 329.362 313.847 326.389 317.402C325.265 318.768 324.31 320.264 323.544 321.858L323.392 321.953C322.324 323.069 320.908 323.788 319.377 323.992C317.846 324.196 316.291 323.874 314.967 323.077V252.299H248.421C247.862 251.567 247.493 250.707 247.347 249.798C247.201 248.888 247.283 247.957 247.584 247.086C248.097 245.466 249.213 244.105 250.701 243.284C255.905 240.231 259.261 235.425 259.261 230.021C259.261 220.791 249.481 213.283 237.414 213.283C225.346 213.283 215.559 220.767 215.559 230.021C215.559 234.373 217.735 238.334 221.289 241.307C222.655 242.431 224.151 243.387 225.745 244.153L225.841 244.304C226.886 245.316 227.579 246.636 227.819 248.07C228.058 249.505 227.832 250.979 227.172 252.275H207.915V414.739H218.739C216.103 412.714 213.964 410.114 212.485 407.137C211.005 404.161 210.225 400.886 210.202 397.562Z" fill="#2ABBFE"/>
<path d="M195.377 238.382C195.377 238.142 195.33 237.904 195.237 237.682C195.145 237.46 195.01 237.259 194.84 237.089C194.669 236.919 194.467 236.785 194.245 236.694C194.022 236.603 193.784 236.556 193.544 236.557H193.4V248.449H195.377V238.382Z" fill="#3A3768"/>
<path d="M193.329 154.954H192.93C192.691 154.954 192.453 155.002 192.232 155.093C192.01 155.185 191.809 155.319 191.64 155.489C191.47 155.658 191.336 155.86 191.244 156.081C191.152 156.303 191.105 156.54 191.105 156.78V172.721C191.107 173.204 191.3 173.667 191.642 174.009C191.984 174.351 192.447 174.544 192.93 174.546H193.401V154.962L193.329 154.954Z" fill="#3A3768"/>
<path d="M192.787 190.806C192.302 190.806 191.837 190.998 191.493 191.34C191.15 191.682 190.955 192.146 190.953 192.631V223.071C190.955 223.556 191.15 224.02 191.493 224.362C191.837 224.704 192.302 224.896 192.787 224.896H193.4V190.806H192.787Z" fill="#3A3768"/>
<path d="M193.4 236.82H192.882C192.398 236.82 191.934 237.012 191.592 237.354C191.249 237.697 191.057 238.161 191.057 238.645V248.712H193.448L193.4 236.82Z" fill="#3A3768"/>
<path d="M193.4 121.311V154.962C193.871 154.979 194.317 155.178 194.644 155.517C194.972 155.856 195.154 156.309 195.154 156.78V172.721C195.152 173.191 194.969 173.643 194.642 173.982C194.316 174.32 193.871 174.52 193.4 174.538V190.814H193.679C193.919 190.814 194.156 190.861 194.378 190.953C194.599 191.045 194.801 191.179 194.97 191.349C195.14 191.518 195.274 191.719 195.366 191.941C195.457 192.162 195.505 192.4 195.505 192.639V223.079C195.505 223.563 195.312 224.027 194.97 224.369C194.628 224.712 194.164 224.904 193.679 224.904H193.385V236.86H193.528C194.013 236.86 194.478 237.052 194.821 237.394C195.165 237.736 195.359 238.2 195.361 238.685V248.712H208.297V122.219C208.297 117.135 210.317 112.258 213.911 108.662C217.506 105.066 222.382 103.044 227.467 103.042H253.459V106.374C253.459 110.562 255.122 114.578 258.083 117.539C261.044 120.5 265.061 122.164 269.248 122.164H314.975V111.738H293.925C293.111 111.734 292.331 111.41 291.754 110.836C291.177 110.262 290.849 109.484 290.84 108.67V108C290.843 107.183 291.168 106.399 291.746 105.821C292.324 105.243 293.108 104.917 293.925 104.915H314.935V90.2336H224.47C216.23 90.2379 208.328 93.5137 202.502 99.3411C196.676 105.169 193.403 113.071 193.4 121.311Z" fill="#3A3768"/>
<path d="M195.154 172.713V156.772C195.154 156.301 194.972 155.848 194.644 155.509C194.317 155.17 193.871 154.971 193.4 154.954V174.522C193.869 174.504 194.313 174.305 194.639 173.968C194.966 173.632 195.15 173.182 195.154 172.713Z" fill="#3A3768"/>
<path d="M195.521 223.071V192.631C195.521 192.391 195.473 192.154 195.382 191.933C195.29 191.711 195.155 191.51 194.986 191.341C194.816 191.171 194.615 191.037 194.394 190.945C194.172 190.853 193.935 190.806 193.695 190.806H193.4V224.896H193.679C193.92 224.898 194.159 224.852 194.383 224.762C194.606 224.671 194.809 224.537 194.98 224.367C195.152 224.197 195.287 223.995 195.38 223.773C195.473 223.55 195.521 223.312 195.521 223.071Z" fill="#3A3768"/>
<path d="M213.606 231.575C213.606 219.149 224.446 209.074 237.82 209.074C251.195 209.074 262.027 219.149 262.027 231.575C261.995 234.895 261.207 238.164 259.722 241.133C258.237 244.103 256.095 246.695 253.458 248.712H314.911V178.013C315.651 177.314 316.569 176.833 317.565 176.622C318.56 176.411 319.595 176.478 320.555 176.818C322.174 177.332 323.534 178.448 324.357 179.934C327.409 185.139 332.215 188.494 337.62 188.494C346.849 188.494 354.358 178.715 354.358 166.639C354.358 154.564 346.881 144.792 337.62 144.792C333.268 144.792 329.306 146.96 326.333 150.523C325.206 151.886 324.25 153.382 323.488 154.978L323.336 155.927C323.336 155.927 319.773 158.972 314.911 156.174V122.14H269.208C265.028 122.129 261.022 120.461 258.069 117.501C255.117 114.541 253.458 110.531 253.458 106.35V103.018H227.482C224.963 103.019 222.468 103.517 220.141 104.483C217.813 105.448 215.699 106.863 213.919 108.646C212.139 110.43 210.727 112.546 209.765 114.875C208.804 117.204 208.31 119.7 208.313 122.219V248.712H222.134C219.505 246.691 217.37 244.097 215.892 241.128C214.415 238.159 213.633 234.892 213.606 231.575Z" fill="#2ABBFE"/>
<path d="M293.925 104.891C293.107 104.893 292.324 105.219 291.746 105.797C291.168 106.375 290.842 107.159 290.84 107.976V108.669C290.842 109.488 291.168 110.272 291.746 110.851C292.323 111.43 293.107 111.758 293.925 111.762H314.935V104.915L293.925 104.891Z" fill="#E6E8EC"/>
<path d="M436.12 201.192V248.505H441.5V199.287H438.591C437.228 199.287 436.12 200.139 436.12 201.192Z" fill="#3A3768"/>
<path d="M327.72 89.8909H321.344V104.238H327.72V89.8909Z" fill="#3A3768"/>
<path d="M327.72 111.411H321.344V121.773H327.72V111.411Z" fill="#3A3768"/>
<path d="M327.72 104.238H321.344V111.411H327.72V104.238Z" fill="#E6E8EC"/>
<path d="M442.6 201.287H441.101V248.449H444.425V203.121C444.425 202.636 444.233 202.171 443.891 201.827C443.549 201.484 443.085 201.289 442.6 201.287Z" fill="#3A3768"/>
<path d="M327.712 104.238C329.41 104.62 330.9 107.713 330.9 107.713V108.383C330.9 108.383 329.402 111.467 327.712 111.411V121.773H363.731C367.92 121.771 371.936 120.106 374.897 117.143C377.857 114.181 379.521 110.164 379.521 105.975V102.644H406.621C411.698 102.654 416.563 104.679 420.15 108.272C423.736 111.866 425.75 116.736 425.75 121.813V214.678C428.247 216.673 430.263 219.204 431.648 222.085C433.034 224.965 433.753 228.12 433.753 231.316C433.753 234.512 433.034 237.668 431.648 240.548C430.263 243.428 428.247 245.96 425.75 247.955V248.489H436.909V201.71C436.909 201.679 436.915 201.648 436.927 201.619C436.939 201.591 436.957 201.565 436.979 201.543C437.002 201.522 437.028 201.505 437.057 201.494C437.086 201.483 437.117 201.478 437.148 201.479H440.894V119.78C440.895 115.855 440.123 111.968 438.621 108.341C437.119 104.714 434.918 101.419 432.142 98.643C429.366 95.8673 426.071 93.6657 422.444 92.1639C418.817 90.6622 414.93 89.8898 411.004 89.8909H326.923V104.238H327.712ZM339.78 104.166C340.547 104.166 341.298 104.394 341.936 104.82C342.574 105.247 343.072 105.853 343.366 106.562C343.66 107.272 343.736 108.052 343.587 108.805C343.437 109.558 343.067 110.25 342.524 110.793C341.981 111.335 341.29 111.705 340.537 111.855C339.784 112.005 339.003 111.928 338.294 111.634C337.585 111.34 336.979 110.843 336.552 110.204C336.126 109.566 335.898 108.816 335.898 108.048C335.898 107.018 336.307 106.031 337.035 105.303C337.763 104.575 338.75 104.166 339.78 104.166Z" fill="#3A3768"/>
<path d="M338.839 141.652C351.361 141.652 361.515 152.5 361.515 165.874C361.515 179.249 351.361 190.097 338.839 190.097C335.436 190.078 332.082 189.273 329.041 187.746C325.999 186.218 323.351 184.008 321.304 181.289V248.505H393.836C391.208 246.477 389.075 243.879 387.599 240.906C386.123 237.933 385.342 234.663 385.315 231.344C385.315 218.902 396.131 208.819 409.482 208.819C415.431 208.779 421.2 210.856 425.758 214.678V121.813C425.758 116.736 423.744 111.866 420.158 108.272C416.571 104.679 411.706 102.654 406.629 102.644H379.529V105.975C379.529 110.164 377.866 114.181 374.905 117.143C371.944 120.106 367.928 121.771 363.739 121.773H321.344V150.467C323.387 147.753 326.028 145.546 329.062 144.017C332.096 142.488 335.442 141.679 338.839 141.652Z" fill="#2ABBFE"/>
<path d="M327.712 111.411C328.531 111.412 329.318 111.098 329.912 110.535C330.506 109.971 330.859 109.2 330.9 108.382V107.713C330.808 106.87 330.449 106.078 329.875 105.453C329.302 104.828 328.544 104.402 327.712 104.238H326.915V111.411H327.712Z" fill="#E6E8EC"/>
<path d="M340.402 111.862C342.518 111.518 343.955 109.525 343.611 107.408C343.268 105.292 341.274 103.855 339.158 104.199C337.042 104.542 335.605 106.536 335.948 108.652C336.292 110.768 338.285 112.205 340.402 111.862Z" fill="#E6E8EC"/>
<path d="M420.346 411.16V403.189C421.998 400.914 422.889 398.174 422.889 395.362C422.889 392.55 421.998 389.81 420.346 387.535V411.16Z" fill="#3A3768"/>
<path d="M435.259 414.237H420.346V417.664H435.259V414.237Z" fill="#3A3768"/>
<path d="M414.328 408.641C412.842 409.464 411.726 410.824 411.212 412.443C410.909 413.315 410.826 414.248 410.972 415.159C411.119 416.07 411.488 416.931 412.049 417.664H420.346V414.236H417.158C418.313 413.312 419.381 412.282 420.346 411.16V403.189C418.759 405.422 416.706 407.282 414.328 408.641Z" fill="#2ABBFE"/>
<path d="M417.142 414.237H420.33V411.16C419.365 412.282 418.298 413.312 417.142 414.237Z" fill="#2ABBFE"/>
<path d="M422.889 395.378C422.869 392.569 421.981 389.835 420.346 387.551V403.197C421.978 400.914 422.866 398.184 422.889 395.378Z" fill="#3A3768"/>
<path d="M435.259 417.664V548.309C435.259 556.553 431.984 564.46 426.154 570.29C420.325 576.119 412.418 579.394 404.174 579.394H320.483V566.641H401.169C406.255 566.641 411.133 564.621 414.729 561.025C418.326 557.428 420.346 552.55 420.346 547.464V417.664H435.259Z" fill="#3A3768"/>
<path d="M411.212 412.443C411.727 410.824 412.842 409.464 414.328 408.641C416.705 407.284 418.759 405.427 420.346 403.197V387.551C416.672 382.267 409.411 378.664 401.041 378.664C388.966 378.664 379.186 386.148 379.186 395.402C379.186 399.754 381.362 403.715 384.917 406.688C386.283 407.812 387.779 408.768 389.373 409.534L389.468 409.685C390.512 410.697 391.205 412.017 391.445 413.452C391.684 414.886 391.458 416.359 390.799 417.656H320.483V483.014C322.502 480.313 325.12 478.115 328.13 476.594C331.141 475.073 334.462 474.269 337.835 474.247C350.261 474.247 360.328 485.087 360.328 498.453C360.328 511.82 350.261 522.668 337.835 522.668C334.462 522.645 331.141 521.842 328.13 520.32C325.12 518.799 322.502 516.602 320.483 513.9V566.657H401.169C406.247 566.657 411.117 564.643 414.712 561.057C418.307 557.471 420.333 552.606 420.346 547.528V417.664H412.073C411.508 416.933 411.134 416.073 410.984 415.162C410.834 414.251 410.912 413.316 411.212 412.443Z" fill="#2ABBFE"/>
<path d="M562.859 214.518C567.307 212.518 570.599 209.146 571.723 204.826C571.859 204.302 571.96 203.77 572.026 203.232C572.224 202.735 572.394 202.226 572.536 201.71C573.659 197.374 572.424 192.886 569.491 189.052L563.664 211.37L562.859 214.518Z" fill="url(#paint0_linear)"/>
<path d="M697.355 206.141C696.446 200.809 679.612 189.26 679.612 189.26C679.612 189.26 672.176 185.274 668.238 180.667C665.719 177.734 664.93 177.766 664.691 178.165C664.528 178.061 664.342 177.998 664.149 177.981C663.99 177.87 663.838 177.766 663.695 177.647C663.718 177.421 663.67 177.195 663.557 176.999C663.444 176.803 663.272 176.647 663.065 176.555C662.874 176.443 662.683 176.3 662.491 176.164C661.216 174.02 660.762 170.983 660.61 168.337C660.419 164.997 656.625 165.834 655.326 166.209C654.433 164.535 653.564 162.797 652.743 161.06C653.106 160.496 653.408 159.895 653.644 159.266C655.987 154.173 655.477 148.331 656.497 142.943C657.231 139.045 658.761 134.972 658.458 131.178C658.458 131.091 658.458 130.995 658.458 130.899C658.458 130.899 658.458 130.939 658.458 130.955C658.375 130.005 658.158 129.071 657.813 128.181C657.135 126.476 655.955 124.993 655.421 123.232C654.569 120.657 655.111 117.82 654.401 115.213C653.517 111.913 650.727 109.363 647.57 107.904C644.414 106.446 640.899 105.943 637.44 105.513C628.792 104.429 619.602 103.783 611.711 107.418C610.987 107.847 610.161 108.07 609.32 108.064C608.541 107.849 607.803 107.507 607.136 107.051C605.016 105.999 602.354 106.669 600.457 108.072C598.56 109.474 597.268 111.499 596.017 113.46C594.766 115.42 593.395 117.445 591.434 118.728C589.13 120.267 586.086 120.785 584.26 122.857C583.447 123.839 582.933 125.034 582.778 126.3C582.778 126.3 582.778 126.26 582.778 126.244C582.77 126.396 582.77 126.547 582.778 126.699C582.778 126.818 582.778 126.946 582.778 127.065C582.778 127.185 582.778 127.265 582.778 127.36C582.778 127.703 582.778 128.038 582.778 128.373C583.033 130.32 583.55 132.223 584.316 134.032C584.684 135.381 585.405 136.608 586.404 137.587C589.178 139.842 593.578 137.714 596.926 138.973C597.22 139.077 597.499 139.213 597.778 139.34C597.778 139.468 597.691 139.595 597.651 139.731C596.934 142.166 596.572 144.692 596.575 147.231C596.575 162.2 609.001 174.331 624.328 174.331C624.902 174.331 625.468 174.331 626.034 174.267C626.114 174.562 626.201 174.865 626.273 175.152C627.126 178.459 627.396 181.89 627.07 185.29L626.903 183.808C626.531 183.629 626.144 183.483 625.747 183.369C624.637 183 623.473 182.822 622.304 182.843C618.534 182.796 612.859 184.31 606.801 191.659C606.801 191.659 599.07 195.955 596.798 196.991C596.612 197.104 596.464 197.271 596.376 197.469C596.376 197.469 586.038 213.084 584.97 219.022C583.902 224.96 582.579 231.775 582.579 231.775C582.579 231.775 579.996 239.474 578.33 242.886C576.664 246.297 575.142 249.549 574.999 251.031C574.855 252.514 575.604 255.766 572.416 257.838C569.228 259.911 568.431 265.538 568.431 265.538C568.431 265.538 566.837 267.036 564.581 268.933H564.501L572.831 236.995L574.321 237.37C574.678 237.458 575.052 237.442 575.4 237.324C575.748 237.205 576.054 236.988 576.282 236.7C576.436 236.505 576.547 236.28 576.609 236.039L578.29 229.567L578.968 226.992L579.103 226.466L580.084 222.712L576.768 221.915L572.886 220.951L561.919 218.185L562.875 214.518L563.672 211.41L568.686 192.169L569.483 189.068C566.295 184.94 561.218 181.584 554.977 180.03C542.941 177.041 531.288 181.903 528.945 190.886C528.806 191.41 528.702 191.942 528.634 192.48C528.432 192.972 528.264 193.478 528.132 193.994C527.726 195.554 527.618 197.176 527.813 198.776C527.845 199.037 527.885 199.303 527.933 199.574C528.41 202.055 529.455 204.393 530.985 206.404C532.062 207.841 533.312 209.14 534.707 210.27L534.763 210.445C535.355 211.412 535.712 212.504 535.807 213.634C535.807 213.793 535.807 213.96 535.807 214.128C535.54 214.609 535.219 215.058 534.851 215.467L461.315 197.19L460.518 200.291L443.955 263.936C446.114 262.276 448.54 260.996 451.128 260.15C452.145 259.813 453.184 259.547 454.237 259.353L454.611 259.289C457.576 258.807 460.607 258.932 463.522 259.656C472.816 261.967 479.24 269.882 480.436 279.191C480.591 280.367 480.657 281.553 480.635 282.738C480.612 284.251 480.452 285.758 480.157 287.242C476.172 299.341 463.929 306.65 452.037 303.693C448.704 302.852 445.611 301.253 442.998 299.02C440.385 296.787 438.323 293.981 436.973 290.82L436.176 293.929L419.087 359.248L484.214 375.444L484.915 372.311H485.019C483.09 369.922 481.692 367.15 480.917 364.179C480.141 361.208 480.008 358.106 480.524 355.079C480.524 354.975 480.587 354.88 480.627 354.776C480.707 354.545 480.795 354.322 480.882 354.099C481.328 353.008 481.862 351.955 482.476 350.95C482.795 350.432 483.13 349.93 483.489 349.444C483.712 349.141 483.943 348.846 484.182 348.559C485.329 347.17 486.637 345.923 488.08 344.845L488.542 344.51C489.068 344.135 489.61 343.777 490.136 343.442C490.463 343.251 490.798 343.059 491.132 342.884C494.99 340.846 499.3 339.818 503.662 339.895C505.758 339.923 507.844 340.19 509.879 340.692C516.163 342.202 521.65 346.016 525.254 351.381C525.731 352.1 526.168 352.845 526.562 353.612C527.735 355.89 528.499 358.356 528.817 360.897C529.066 362.927 529.013 364.982 528.658 366.995C527.108 371.452 524.148 375.283 520.225 377.907L519.428 380.904H519.516L519.396 380.991L518.599 383.98L533.472 387.678L554.538 307.136C560.221 306.475 563.13 303.948 563.13 303.581C563.13 303.215 569.961 299.429 573.747 298.392C575.628 297.882 577.804 297.516 579.534 297.149C577.493 307.28 575.549 317.075 575.724 317.649C575.78 317.872 576.146 317.522 576.704 316.757C576.649 317.051 576.625 317.35 576.633 317.649C576.633 317.801 576.848 317.689 577.127 317.378L577.087 317.57C577.087 317.57 565.259 340.453 564.334 343.075C563.409 345.698 564.557 352.409 568.2 354.633C568.906 355.079 569.536 355.636 570.065 356.283L569.634 357.135C568.279 359.885 567.076 362.946 567.291 364.851C567.576 367.262 567.012 369.697 565.697 371.737C565.697 371.737 555.455 403.388 555.686 412.499C555.917 421.609 552.043 441.599 552.043 441.599C552.043 441.599 547.835 454.48 550.338 458.146C552.84 461.813 555.686 477.809 555.686 477.809C555.686 477.809 557.623 481.476 557.503 484.584C557.384 487.693 559.329 493.352 559.329 493.352L565.705 516.339C565.705 516.339 565.019 522.453 567.411 526.781C569.802 531.109 569.571 529.777 568.431 537.334C567.291 544.89 569.802 551.88 573.891 554.072C575.485 554.933 575.565 556.248 575.07 557.531C574.026 557.124 573.157 559.284 572.639 561.03L572.113 561.532L572.464 561.62C572.241 562.417 572.113 563.086 572.113 563.086C572.113 563.086 561.425 571.974 560.739 575.194C560.054 578.414 552.546 580.08 552.546 580.08C552.546 580.08 541.172 583.188 538.199 584.742C537.348 585.129 536.611 585.73 536.061 586.485C535.511 587.241 535.165 588.126 535.058 589.054C534.925 590.518 535.065 591.994 535.473 593.406C536.604 597.958 552.53 598.404 560.181 597.184C567.833 595.965 583.607 591.517 583.607 591.517C583.607 591.517 600.217 589.923 605.127 587.963C610.037 586.002 606.148 580.853 606.148 580.853C606.148 580.853 606.148 580.685 606.148 580.375C606.267 578.517 606.61 571.782 605.43 570.013C604.545 568.642 604.569 565.231 604.697 563.063C608.021 557.085 600.887 539.151 600.887 539.151C600.887 539.151 602.25 521.616 601.341 519.049C600.433 516.483 596.559 494.723 596.559 494.723C596.559 494.723 594.168 484.84 595.084 483.174C596.001 481.508 594.511 476.725 594.511 476.725C594.511 476.725 590.613 471.409 590.964 469.735C591.314 468.061 589.824 465.073 589.824 465.073C589.824 465.073 601.429 447.745 600.401 444.524C599.373 441.304 600.863 436.084 600.863 436.084C600.863 436.084 602.322 433.629 604.051 430.688C606.203 427.085 608.834 422.773 609.694 421.426C610.81 419.712 613.496 412.419 614.995 408.219C615.632 406.433 616.063 405.206 616.063 405.206C616.063 405.206 617.88 437.885 619.474 441.193C621.068 444.501 623.46 470.851 623.46 470.851C624.344 473.19 624.732 475.687 624.599 478.184C624.376 482.289 628.242 500.175 628.242 500.175C628.242 500.175 629.948 512.832 628.808 516.164C627.668 519.495 628.585 544.061 628.585 544.061C628.585 544.061 622.328 548.843 620.734 552.502C619.139 556.16 620.957 566.163 620.957 566.163L621.69 566.506C621.104 567.895 620.668 569.343 620.391 570.826C620.168 572.938 616.748 582.495 617.091 583.826C617.434 585.157 615.617 589.27 615.385 591.374C615.154 593.478 612.317 596.595 612.086 597.71C611.726 598.709 611.308 599.686 610.834 600.636C610.215 602.095 609.722 603.604 609.36 605.147C608.22 609.818 621.754 610.591 621.754 610.591C641.776 614.257 645.418 599.265 645.418 599.265C645.418 599.265 647.921 585.938 648.83 584.918C648.941 584.728 649.012 584.518 649.038 584.3C649.064 584.082 649.045 583.861 648.981 583.65C648.461 581.383 647.479 579.248 646.096 577.378C645.458 576.636 645.418 574.731 645.522 573.026C646.101 572.969 646.675 572.863 647.236 572.707C655.31 570.379 652.018 556.933 652.018 556.933C652.018 556.933 657.478 548.054 657.478 544.611C657.478 541.167 659.415 530.614 659.415 530.614C666.357 518.172 663.623 487.964 664.763 485.517C665.903 483.07 662.372 473.968 659.526 469.855C656.681 465.742 657.821 454.639 659.526 451.419C661.232 448.199 657.821 437.072 657.821 437.072C657.821 437.072 661.12 415.552 661.009 412.188C660.897 408.824 663.854 398.973 663.854 398.973C663.854 398.973 666.811 393.864 666.126 392.309C665.44 390.755 668.397 386.73 667.608 384.976C666.819 383.223 668.286 377.755 669.768 374.535C670.526 372.885 671.466 368.342 672.16 364.301C672.239 363.855 672.319 363.408 672.391 362.97C675.706 365.066 678.767 366.628 679.851 366.206C681.884 365.409 678.648 355.047 676.432 348.591C676.814 348.304 676.974 348.089 676.814 347.993C675.451 347.1 676.966 343.099 676.966 343.099C685.008 338.365 682.274 334.81 679.7 332.738C677.125 330.665 678.791 324.767 678.026 322.376C677.261 319.985 678.943 309.2 680.306 301.349C680.588 299.644 680.575 297.902 680.266 296.201C681.724 293.977 683.231 291.649 684.554 289.497C689.097 282.093 698.805 246.847 698.805 246.847L698.741 246.664C699.69 244.79 700.399 243.268 700.782 242.256C703.723 234.604 698.263 211.49 697.355 206.141ZM626.672 185.848L626.879 185.753C626.879 185.808 626.879 185.864 626.879 185.92L626.672 185.848ZM582.539 563.931C582.043 563.935 581.552 563.837 581.096 563.644L582.539 563.931Z" fill="url(#paint1_linear)"/>
<path d="M498.274 307.048C504.834 309.535 520.082 309.806 526.857 309.806C528.913 309.806 530.188 309.806 530.188 309.806L534.532 300.959L530.188 293.586C530.188 293.586 526.203 292.486 520.911 291.53C513.099 290.127 502.411 289.027 497.318 292.183C488.773 297.468 489.73 303.804 498.274 307.048Z" fill="#FEC2BE"/>
<path opacity="0.1" d="M526.849 309.806C528.905 309.806 530.18 309.806 530.18 309.806L534.524 300.959L530.188 293.586C530.188 293.586 526.203 292.486 520.911 291.53C525.207 294.686 535.537 301.557 526.849 309.806Z" fill="black"/>
<path d="M598.798 201.223L596.885 199.008C596.885 199.008 587.01 214.63 585.974 220.528C584.938 226.426 583.583 233.201 583.583 233.201C583.583 233.201 581.08 240.869 579.454 244.256C577.828 247.644 576.361 250.888 576.218 252.362C576.074 253.837 576.808 257.081 573.707 259.145C570.607 261.21 569.881 266.813 569.881 266.813C569.881 266.813 558.675 277.717 552.776 277.972C546.878 278.227 529.933 281.216 530.523 284.165C531.112 287.114 523.453 288.876 520.352 289.617C517.252 290.358 540.279 299.181 526.84 310.547C526.84 310.547 535.385 312.317 536.269 314.373C537.154 316.43 546.145 313.202 546.145 313.202C546.145 313.202 548.066 308.627 554.697 308.332C561.329 308.037 564.716 305.088 564.716 304.649C564.716 304.211 571.348 300.521 575.078 299.492C578.808 298.464 583.622 298.018 583.774 296.982C583.925 295.945 605.884 201.184 605.884 201.184L598.798 201.223Z" fill="#4C4981"/>
<path opacity="0.05" d="M598.798 201.223L596.885 199.008C596.885 199.008 587.01 214.63 585.974 220.528C584.938 226.426 583.583 233.201 583.583 233.201C583.583 233.201 581.08 240.869 579.454 244.256C577.828 247.644 576.361 250.888 576.218 252.362C576.074 253.837 576.808 257.081 573.707 259.145C570.607 261.21 569.881 266.813 569.881 266.813C569.881 266.813 558.675 277.717 552.776 277.972C546.878 278.227 529.933 281.216 530.523 284.165C531.112 287.114 523.453 288.876 520.352 289.617C517.252 290.358 540.279 299.181 526.84 310.547C526.84 310.547 535.385 312.317 536.269 314.373C537.154 316.43 546.145 313.202 546.145 313.202C546.145 313.202 548.066 308.627 554.697 308.332C561.329 308.037 564.716 305.088 564.716 304.649C564.716 304.211 571.348 300.521 575.078 299.492C578.808 298.464 583.622 298.018 583.774 296.982C583.925 295.945 605.884 201.184 605.884 201.184L598.798 201.223Z" fill="black"/>
<path d="M621.754 610.232C641.21 613.883 644.749 598.954 644.749 598.954C644.749 598.954 647.18 585.691 648.064 584.695C648.174 584.506 648.245 584.297 648.271 584.081C648.297 583.864 648.278 583.645 648.216 583.435C647.705 581.187 646.751 579.062 645.41 577.187C644.199 575.752 645.187 569.782 645.187 569.782L622.638 564.035C622.638 564.035 620.646 568.562 620.43 570.667C620.215 572.771 616.891 582.272 617.242 583.603C617.593 584.934 615.808 589.015 615.584 591.119C615.361 593.223 612.603 596.316 612.396 597.416C612.049 598.412 611.642 599.386 611.177 600.333C610.578 601.788 610.098 603.288 609.742 604.82C608.602 609.459 621.754 610.232 621.754 610.232Z" fill="#CA8496"/>
<path opacity="0.1" d="M621.754 610.232C641.21 613.883 644.749 598.954 644.749 598.954C644.749 598.954 647.18 585.691 648.064 584.695C648.174 584.506 648.245 584.297 648.271 584.081C648.297 583.864 648.278 583.644 648.216 583.435L643.529 596.858C643.529 596.858 639.663 604.924 625.292 603.712C617.115 603.019 613.09 601.505 611.137 600.325C610.538 601.78 610.059 603.28 609.702 604.812C608.602 609.459 621.754 610.232 621.754 610.232Z" fill="black"/>
<path opacity="0.1" d="M636.898 589.23C636.898 589.23 632.036 589.342 631.701 585.364L636.898 589.23Z" fill="black"/>
<path d="M485.649 372.28L488.733 373.069L488.056 376.201L485.194 375.476L485.649 372.28Z" fill="#2ABBFE"/>
<path opacity="0.1" d="M485.649 372.28L488.733 373.069L488.056 376.201L485.194 375.476L485.649 372.28Z" fill="black"/>
<path d="M577.195 226.435L576.243 230.173L579.464 230.993L580.416 227.254L577.195 226.435Z" fill="#3A3768"/>
<path d="M562.735 222.75L561.783 226.488L572.466 229.207L573.417 225.469L562.735 222.75Z" fill="#3A3768"/>
<path d="M573.411 225.477L572.459 229.216L576.237 230.177L577.188 226.439L573.411 225.477Z" fill="#3A3768"/>
<path d="M562.9 222.266C562.645 222.385 562.397 222.513 562.15 222.616L562.772 222.776L561.816 226.514L557.089 225.311C556.731 224.463 556.587 223.54 556.672 222.623C556.757 221.707 557.067 220.825 557.575 220.058C558.475 218.606 559.904 217.56 561.561 217.141C562.573 216.85 563.561 216.482 564.518 216.041L562.9 222.266Z" fill="#2ABBFE"/>
<path d="M574.177 238.406L575.62 238.781C575.853 238.841 576.095 238.854 576.333 238.819C576.571 238.785 576.8 238.704 577.007 238.581C577.213 238.458 577.394 238.296 577.537 238.103C577.681 237.91 577.785 237.691 577.844 237.458L579.454 231.018L576.266 230.22L574.177 238.406Z" fill="#3A3768"/>
<path d="M573.078 206.396C571.978 210.701 568.782 214.056 564.462 216.041L570.121 193.803C572.99 197.621 574.194 202.092 573.078 206.396Z" fill="#3A3768"/>
<path d="M572.169 237.896C571.701 237.776 571.3 237.475 571.054 237.06C570.807 236.645 570.735 236.148 570.854 235.68L572.496 229.232L561.815 226.514L529.24 354.473C531.608 359.084 532.21 364.402 530.931 369.425C529.653 374.449 526.582 378.831 522.297 381.749L521.54 384.73L535.991 388.436L574.178 238.438L572.169 237.896Z" fill="#3A3768"/>
<path d="M570.854 235.68C570.735 236.148 570.807 236.644 571.053 237.06C571.3 237.475 571.701 237.776 572.169 237.896L574.177 238.406L576.266 230.196L572.496 229.232L570.854 235.68Z" fill="#3A3768"/>
<path d="M557.567 220.058C558.472 218.61 559.899 217.566 561.552 217.141C562.561 216.848 563.547 216.48 564.501 216.041L570.168 193.803C566.621 189.297 561.65 186.127 556.068 184.812C544.376 181.831 533.042 186.669 530.77 195.612C529.694 199.829 530.826 204.204 533.544 207.967C534.585 209.393 535.797 210.686 537.154 211.816L537.21 211.992C537.978 213.234 538.326 214.691 538.203 216.146C538.079 217.601 537.491 218.979 536.525 220.074L465.061 201.877L448.936 265.227C451.552 263.109 454.62 261.623 457.904 260.885C461.187 260.147 464.596 260.176 467.866 260.971C479.91 264.039 486.996 277.031 483.696 289.984C480.396 302.936 467.994 310.962 455.95 307.933C452.687 307.073 449.667 305.469 447.126 303.247C444.586 301.025 442.595 298.245 441.309 295.125L424.754 360.132L488.056 376.241C486.003 373.634 484.571 370.594 483.869 367.351C483.167 364.108 483.215 360.748 484.007 357.526C487.075 345.49 500.059 338.397 513.02 341.696C516.479 342.544 519.717 344.122 522.515 346.326C525.313 348.53 527.606 351.308 529.24 354.473L561.815 226.514L557.137 225.311C556.77 224.467 556.617 223.547 556.692 222.63C556.768 221.714 557.068 220.83 557.567 220.058Z" fill="#2ABBFE"/>
<path d="M562.764 222.776L562.899 222.266C562.652 222.385 562.405 222.513 562.15 222.625L562.764 222.776Z" fill="#2ABBFE"/>
<g opacity="0.1">
<path opacity="0.1" d="M577.214 226.458L573.444 225.494L562.772 222.776L562.907 222.266L564.501 216.041C563.545 216.482 562.557 216.85 561.544 217.141C559.888 217.56 558.459 218.606 557.559 220.058C557.325 220.459 557.127 220.881 556.969 221.317C557.125 220.881 557.319 220.459 557.551 220.058C558.456 218.61 559.883 217.566 561.536 217.141C562.545 216.848 563.531 216.48 564.485 216.041L570.152 193.803C566.605 189.297 561.635 186.127 556.053 184.812C544.36 181.831 533.026 186.669 530.754 195.612C529.678 199.829 530.81 204.204 533.528 207.967C534.569 209.393 535.781 210.686 537.138 211.816L537.194 211.992C537.962 213.234 538.31 214.691 538.187 216.146C538.063 217.601 537.475 218.979 536.509 220.074L465.045 201.877L448.92 265.227C451.537 263.107 454.609 261.619 457.895 260.881C461.181 260.143 464.594 260.173 467.866 260.971C479.91 264.039 486.996 277.031 483.696 289.984C480.396 302.936 467.994 310.962 455.95 307.933C452.687 307.073 449.667 305.469 447.126 303.247C444.586 301.025 442.595 298.245 441.309 295.125L424.754 360.132L488.056 376.241C486.003 373.634 484.571 370.594 483.869 367.351C483.167 364.108 483.215 360.748 484.007 357.526C487.075 345.49 500.059 338.397 513.02 341.696C516.479 342.544 519.717 344.122 522.515 346.326C525.313 348.53 527.606 351.308 529.24 354.473C531.608 359.084 532.21 364.402 530.931 369.425C529.653 374.448 526.582 378.831 522.297 381.748L521.54 384.729L535.991 388.436L574.178 238.438L575.62 238.813C575.853 238.872 576.096 238.886 576.334 238.851C576.572 238.817 576.8 238.736 577.007 238.613C577.214 238.49 577.394 238.328 577.538 238.135C577.681 237.942 577.785 237.723 577.844 237.49L579.454 231.017L580.403 227.279L577.214 226.458ZM562.517 222.473C562.397 222.529 562.278 222.593 562.158 222.64L562.517 222.473ZM557.097 225.334L561.823 226.538L557.097 225.334Z" fill="black"/>
<path opacity="0.1" d="M573.078 206.396C574.17 202.092 572.966 197.629 570.12 193.803L564.461 216.041C568.805 214.056 572.002 210.693 573.078 206.396Z" fill="black"/>
</g>
<path d="M577.977 223.352L577.026 227.091L580.247 227.911L581.198 224.172L577.977 223.352Z" fill="#3A3768"/>
<path d="M563.517 219.668L562.565 223.406L573.248 226.125L574.2 222.387L563.517 219.668Z" fill="#3A3768"/>
<path d="M574.196 222.38L573.244 226.118L577.021 227.08L577.973 223.341L574.196 222.38Z" fill="#3A3768"/>
<path d="M563.688 219.173L562.939 219.532L563.553 219.683L562.604 223.445L557.878 222.242C557.514 221.396 557.367 220.472 557.451 219.555C557.534 218.638 557.845 217.756 558.356 216.989C559.259 215.54 560.687 214.495 562.341 214.072C563.351 213.781 564.337 213.413 565.29 212.972L563.688 219.173Z" fill="#2ABBFE"/>
<path d="M574.959 235.321L576.41 235.688C576.644 235.751 576.889 235.767 577.13 235.735C577.37 235.702 577.602 235.622 577.812 235.499C578.021 235.376 578.204 235.212 578.349 235.017C578.494 234.822 578.599 234.601 578.657 234.365L580.299 227.925L577.111 227.128L574.959 235.321Z" fill="#3A3768"/>
<path d="M573.875 203.312C572.783 207.608 569.587 210.964 565.259 212.948L570.926 190.71C573.779 194.528 574.983 199 573.875 203.312Z" fill="#3A3768"/>
<path d="M572.958 234.812C572.726 234.752 572.507 234.647 572.315 234.503C572.123 234.359 571.962 234.179 571.84 233.972C571.718 233.766 571.637 233.537 571.604 233.3C571.57 233.062 571.583 232.82 571.643 232.588L573.237 226.148L562.605 223.446L530.037 351.389C532.41 355.997 533.015 361.315 531.736 366.339C530.457 371.362 527.383 375.744 523.095 378.656L522.337 381.637L536.796 385.319L574.975 235.322L572.958 234.812Z" fill="#3A3768"/>
<path d="M571.643 232.588C571.583 232.82 571.57 233.062 571.604 233.3C571.637 233.537 571.717 233.766 571.84 233.972C571.962 234.179 572.123 234.359 572.315 234.503C572.507 234.647 572.726 234.752 572.958 234.811L574.959 235.322L577.063 227.104L573.285 226.147L571.643 232.588Z" fill="#3A3768"/>
<path d="M558.356 216.965C559.259 215.516 560.687 214.471 562.341 214.048C563.351 213.757 564.337 213.39 565.29 212.948L570.949 190.71C567.405 186.205 562.437 183.036 556.858 181.72C545.157 178.747 533.831 183.577 531.551 192.528C530.483 196.736 531.607 201.112 534.333 204.874C535.374 206.303 536.586 207.599 537.943 208.732L537.999 208.899C538.765 210.142 539.111 211.598 538.988 213.053C538.864 214.508 538.278 215.885 537.314 216.981L465.842 198.793L449.693 262.135C452.313 260.011 455.389 258.522 458.68 257.785C461.971 257.048 465.388 257.083 468.663 257.886C480.699 260.947 487.793 273.939 484.493 286.899C481.193 299.859 468.783 307.87 456.708 304.809C453.448 303.943 450.433 302.336 447.897 300.113C445.362 297.889 443.374 295.11 442.09 291.992L425.543 357L488.837 373.116C486.785 370.509 485.355 367.469 484.654 364.226C483.954 360.983 484.002 357.623 484.796 354.402C487.856 342.358 500.848 335.272 513.809 338.572C517.275 339.419 520.518 341.002 523.318 343.214C526.118 345.425 528.409 348.213 530.037 351.389L562.604 223.445L557.878 222.242C557.514 221.392 557.367 220.464 557.451 219.543C557.534 218.622 557.845 217.736 558.356 216.965Z" fill="#2ABBFE"/>
<path d="M563.553 219.691L563.681 219.173C563.434 219.293 563.187 219.42 562.939 219.532L563.553 219.691Z" fill="#2ABBFE"/>
<path d="M552.354 458.577C554.745 462.219 557.551 478.145 557.551 478.145C557.551 478.145 559.432 481.787 559.32 484.888C559.209 487.988 561.09 493.655 561.09 493.655L567.283 516.539C567.283 516.539 566.613 522.62 568.941 526.9C571.268 531.181 571.037 529.881 569.937 537.398C568.837 544.914 571.26 551.88 575.238 554.136C579.215 556.391 573.468 561.54 573.468 561.54C573.468 561.54 598.894 568.395 604.203 564.195C609.511 559.994 601.437 539.207 601.437 539.207C601.437 539.207 602.768 521.743 601.883 519.201C600.998 516.658 597.236 494.994 597.236 494.994C597.236 494.994 594.917 485.151 595.802 483.493C596.686 481.835 595.252 477.116 595.252 477.116C595.252 477.116 591.49 471.808 591.824 470.15C592.159 468.492 590.716 465.511 590.716 465.511C590.716 465.511 601.971 448.215 600.974 444.971C599.978 441.727 601.413 436.57 601.413 436.57L604.553 431.198C606.649 427.611 609.184 423.315 610.037 421.976C611.121 420.27 613.735 413.017 615.194 408.833L616.23 405.836C616.23 405.836 618 438.34 619.546 441.655C621.092 444.971 623.412 471.146 623.412 471.146C624.271 473.477 624.648 475.958 624.519 478.439C624.296 482.528 628.058 500.327 628.058 500.327C628.058 500.327 629.716 512.928 628.608 516.268C627.5 519.607 628.385 544.021 628.385 544.021C628.385 544.021 622.304 548.803 620.757 552.422C619.211 556.041 620.981 565.972 620.981 565.972C620.981 565.972 638.667 574.819 646.486 572.5C654.305 570.18 651.125 556.798 651.125 556.798C651.125 556.798 656.434 547.959 656.434 544.531C656.434 541.104 658.362 530.639 658.362 530.639C665.106 518.26 662.451 488.195 663.559 485.764C664.667 483.333 661.232 474.263 658.474 470.174C655.716 466.085 656.816 455.03 658.474 451.842C660.132 448.653 656.768 437.566 656.768 437.566C656.768 437.566 659.957 416.118 659.861 412.802C659.765 409.486 662.627 399.651 662.627 399.651C662.627 399.651 665.496 394.565 664.835 393.011C664.173 391.457 667.042 387.488 666.269 385.718C665.496 383.949 666.939 378.545 668.373 375.356C669.107 373.714 670.023 369.187 670.765 365.178C671.442 361.36 671.944 358.004 671.944 358.004L653.7 343.299L608.156 331.343L591.027 325.819L574.329 352.122C573.149 354.04 572.066 356.017 571.085 358.044C569.77 360.778 568.598 363.823 568.805 365.72C569.084 368.114 568.538 370.532 567.259 372.575C567.259 372.575 557.304 404.074 557.527 413.145C557.75 422.215 553.988 442.102 553.988 442.102C553.988 442.102 549.899 454.918 552.354 458.577Z" fill="#CEDDF9"/>
<path d="M619.674 202.323C620.375 202.037 668.461 182.174 661.838 178.228C657.908 175.885 653.07 165.954 649.754 158.183C647.443 152.755 645.873 148.379 645.873 148.379C645.873 148.379 607.279 141.524 621.092 165.181C623.27 168.81 624.91 172.735 625.962 176.834C629.9 192.95 619.992 202.029 619.674 202.323Z" fill="#FEC2BE"/>
<path opacity="0.1" d="M621.092 165.181C623.27 168.81 624.91 172.735 625.962 176.834C630.859 176.493 635.569 174.821 639.585 171.999C643.601 169.177 646.77 165.312 648.75 160.821C649.133 159.96 649.468 159.08 649.754 158.183C647.443 152.755 645.873 148.379 645.873 148.379C645.873 148.379 607.279 141.524 621.092 165.181Z" fill="black"/>
<path d="M597.101 149.04C597.104 155.865 599.693 162.434 604.348 167.424C609.003 172.414 615.377 175.453 622.185 175.929C628.992 176.405 635.727 174.282 641.031 169.989C646.335 165.695 649.814 159.55 650.766 152.792C651.718 146.035 650.072 139.168 646.161 133.576C642.25 127.984 636.363 124.083 629.689 122.659C623.015 121.236 616.05 122.396 610.197 125.906C604.345 129.416 600.041 135.014 598.153 141.572C597.454 144 597.1 146.514 597.101 149.04Z" fill="#FEC2BE"/>
<path opacity="0.1" d="M571.085 358.036C573.907 360.603 574.991 365.489 574.991 365.489C574.991 365.489 588.261 374.551 587.377 368.804C586.492 363.058 594.231 339.839 594.231 339.839L593.347 371.459C593.347 371.459 635.79 369.466 638.89 366.373C641.991 363.281 660.116 357.351 660.116 357.351C660.116 357.351 665.695 361.806 670.765 365.186C671.442 361.368 671.944 358.012 671.944 358.012L653.7 343.307L608.156 331.351L591.027 325.827L574.329 352.13C573.149 354.043 572.066 356.014 571.085 358.036Z" fill="black"/>
<path d="M569.69 355.541C573.229 357.749 574.552 363.719 574.552 363.719C574.552 363.719 587.815 372.782 586.93 367.035C586.046 361.288 593.785 338.07 593.785 338.07L592.9 369.689C592.9 369.689 635.351 367.712 638.436 364.604C641.521 361.495 659.662 355.541 659.662 355.541C659.662 355.541 675.364 368.143 678.233 367.035C681.102 365.927 673.148 344.486 673.148 344.486L664.978 218.91C664.978 218.91 667.186 181.544 663.87 180.213C663.358 180.006 662.887 179.712 662.475 179.344C660.291 177.384 659.638 173.398 659.446 170.051C659.231 166.065 653.923 168.058 653.923 168.058L657.015 172.043L629.621 188.702L629.382 188.845C628.315 188.283 627.216 187.786 626.09 187.355C623.699 186.422 620.439 185.545 618.326 186.414C617.146 187.014 616.145 187.916 615.425 189.029C613.863 191.377 612.609 193.916 611.695 196.585L601.772 213.379C601.772 213.379 596.686 235.696 596.686 236.597C596.686 237.497 595.14 257.822 593.371 260.03C591.601 262.238 589.832 273.293 590.493 276.609C591.155 279.925 589.385 292.311 589.385 292.311C582.092 298.281 578.338 318.614 578.338 318.614C578.338 318.614 566.813 341.409 565.904 344.04C564.995 346.67 566.151 353.365 569.69 355.541Z" fill="white"/>
<path opacity="0.1" d="M629.621 189.579C632.307 193.564 640.07 199.143 640.07 199.143L662.476 180.213C660.292 178.253 659.638 174.267 659.447 170.912C659.232 166.926 653.923 168.927 653.923 168.927L654.569 169.724C654.877 170.121 655.097 170.579 655.216 171.067C655.335 171.556 655.349 172.064 655.258 172.558C655.167 173.052 654.973 173.522 654.688 173.936C654.403 174.35 654.034 174.699 653.605 174.961L629.621 189.579Z" fill="black"/>
<path d="M629.621 188.694C632.307 192.679 640.07 198.258 640.07 198.258L662.476 179.328C660.292 177.368 659.638 173.382 659.447 170.035C659.232 166.049 653.923 168.042 653.923 168.042L654.569 168.839C654.877 169.236 655.097 169.693 655.216 170.181C655.335 170.668 655.349 171.176 655.258 171.67C655.167 172.163 654.972 172.632 654.687 173.045C654.402 173.459 654.033 173.807 653.605 174.068L629.621 188.694Z" fill="white"/>
<path opacity="0.1" d="M619.259 191.675C622.153 195.134 626.257 199.064 626.066 197.095C625.875 195.126 628.513 190.782 630.195 188.837C627.568 188.005 624.737 188.083 622.161 189.061C620.978 189.658 619.976 190.561 619.259 191.675Z" fill="black"/>
<path d="M618.821 190.344C621.714 193.811 625.811 197.733 625.62 195.772C625.428 193.811 627.796 190.615 629.477 188.67C627.086 187.737 623.834 186.861 621.714 187.738C620.535 188.333 619.536 189.233 618.821 190.344Z" fill="white"/>
<path d="M626.066 208.74C627.043 208.74 627.835 207.947 627.835 206.97C627.835 205.993 627.043 205.201 626.066 205.201C625.089 205.201 624.296 205.993 624.296 206.97C624.296 207.947 625.089 208.74 626.066 208.74Z" fill="#FF718D"/>
<path d="M612.651 256.491C613.629 256.491 614.421 255.699 614.421 254.722C614.421 253.745 613.629 252.952 612.651 252.952C611.674 252.952 610.882 253.745 610.882 254.722C610.882 255.699 611.674 256.491 612.651 256.491Z" fill="#FF718D"/>
<path d="M597.476 304.841C598.453 304.841 599.245 304.048 599.245 303.071C599.245 302.094 598.453 301.302 597.476 301.302C596.498 301.302 595.706 302.094 595.706 303.071C595.706 304.048 596.498 304.841 597.476 304.841Z" fill="#FF718D"/>
<path d="M597.029 357.454C598.007 357.454 598.799 356.662 598.799 355.685C598.799 354.708 598.007 353.916 597.029 353.916C596.052 353.916 595.26 354.708 595.26 355.685C595.26 356.662 596.052 357.454 597.029 357.454Z" fill="#FF718D"/>
<path d="M618.255 231.288C619.232 231.288 620.024 230.496 620.024 229.519C620.024 228.542 619.232 227.75 618.255 227.75C617.278 227.75 616.485 228.542 616.485 229.519C616.485 230.496 617.278 231.288 618.255 231.288Z" fill="#FF718D"/>
<path d="M606.315 280.371C607.293 280.371 608.085 279.579 608.085 278.602C608.085 277.624 607.293 276.832 606.315 276.832C605.338 276.832 604.546 277.624 604.546 278.602C604.546 279.579 605.338 280.371 606.315 280.371Z" fill="#FF718D"/>
<path d="M594.67 328.569C595.647 328.569 596.439 327.777 596.439 326.8C596.439 325.822 595.647 325.03 594.67 325.03C593.693 325.03 592.9 325.822 592.9 326.8C592.9 327.777 593.693 328.569 594.67 328.569Z" fill="#FF718D"/>
<path d="M597.324 363.352C598.301 363.352 599.094 362.56 599.094 361.583C599.094 360.606 598.301 359.813 597.324 359.813C596.347 359.813 595.555 360.606 595.555 361.583C595.555 362.56 596.347 363.352 597.324 363.352Z" fill="#FF718D"/>
<path opacity="0.1" d="M662.475 180.405C662.475 180.405 662.18 177.75 666.006 182.325C669.832 186.901 677.061 190.87 677.061 190.87C677.061 190.87 693.425 202.371 694.31 207.672C695.194 212.972 700.495 235.975 697.697 243.635C694.899 251.295 673.507 288.007 673.507 288.007C673.507 288.007 679.086 294.646 677.787 302.458C676.488 310.269 674.838 321.029 675.571 323.388C676.304 325.748 674.686 331.638 677.165 333.702C679.644 335.767 682.322 339.282 674.511 344.016C674.511 344.016 673.036 348.001 674.359 348.886C675.683 349.771 654.76 358.905 646.462 354.043C638.165 349.181 623.348 310.269 623.029 301.573C622.71 292.877 627.596 264.111 630.25 257.352C632.905 250.593 640.867 224.187 644.255 218.297C647.642 212.406 662.475 180.405 662.475 180.405Z" fill="black"/>
<path d="M663.352 180.405C663.352 180.405 663.057 177.75 666.891 182.325C670.725 186.901 677.946 190.87 677.946 190.87C677.946 190.87 694.309 202.371 695.194 207.672C696.079 212.972 701.379 235.975 698.582 243.635C695.784 251.295 674.407 288.007 674.407 288.007C674.407 288.007 679.986 294.646 678.687 302.458C677.388 310.269 675.738 321.029 676.471 323.388C677.205 325.748 675.587 331.638 678.065 333.702C680.544 335.767 683.222 339.282 675.411 344.016C675.411 344.016 673.937 348.001 675.26 348.886C676.583 349.771 655.66 358.905 647.363 354.043C639.066 349.181 624.248 310.269 623.929 301.573C623.611 292.877 628.497 264.111 631.151 257.352C633.805 250.593 641.768 224.187 645.155 218.297C648.542 212.406 663.352 180.405 663.352 180.405Z" fill="#4C4981"/>
<path opacity="0.1" d="M669.25 205.496C669.25 205.496 656.577 219.5 657.015 228.786C657.015 228.786 656.872 213.745 669.25 205.496Z" fill="black"/>
<path opacity="0.1" d="M651.715 228.491C651.715 228.929 643.163 260.764 643.609 264.749C644.056 268.734 641.099 280.515 641.099 280.515L637.113 279.486C637.113 279.486 640.206 263.123 640.796 257.081C641.385 251.039 651.715 228.491 651.715 228.491Z" fill="black"/>
<path opacity="0.1" d="M648.32 319.283C648.615 319.722 668.517 342.27 662.914 343.896C657.311 345.522 648.32 319.283 648.32 319.283Z" fill="black"/>
<path opacity="0.1" d="M664.683 313.513C665.121 313.808 672.654 329.725 673.522 325.469C674.391 321.212 667.042 337.114 665.863 325.325L664.683 313.513Z" fill="black"/>
<path opacity="0.1" d="M626.48 185.45C626.48 185.45 618.263 180.436 607.941 193.261C607.941 193.261 600.425 197.533 598.217 198.569C596.009 199.606 593.498 227.016 593.498 227.016C593.498 227.016 588.636 238.805 589.959 245.588C591.282 252.371 586.134 275.653 586.134 275.653C586.134 275.653 577.573 317.498 577.86 318.694C578.147 319.889 586.556 305.574 586.412 298.496C586.269 291.418 593.482 269.316 594.519 267.985C595.555 266.654 602.625 228.786 602.625 228.786C602.625 228.786 608.371 212.717 612.054 207.409C615.736 202.1 620.311 192.081 622.224 190.312C623.601 189.12 625.139 188.128 626.791 187.363L626.48 185.45Z" fill="black"/>
<path d="M626.584 185.45C626.584 185.45 617.37 180.436 607.056 193.261C607.056 193.261 599.532 197.533 597.324 198.569C595.116 199.606 592.605 227.016 592.605 227.016C592.605 227.016 587.743 238.805 589.066 245.588C590.389 252.371 585.241 275.653 585.241 275.653C585.241 275.653 576.688 317.514 576.983 318.694C577.278 319.873 585.679 305.574 585.535 298.496C585.392 291.418 592.605 269.316 593.641 267.985C594.678 266.654 601.771 228.786 601.771 228.786C601.771 228.786 607.518 212.717 611.201 207.409C614.883 202.1 619.458 192.081 621.371 190.312C623.284 188.542 626.823 187.363 626.823 187.363L626.584 185.45Z" fill="#4C4981"/>
<path d="M586.126 277.566C586.126 277.566 568.59 266.072 560.11 271.747C551.629 277.422 537.792 285.456 551.414 291.275C565.035 297.093 583.91 295.978 583.91 295.978L586.126 277.566Z" fill="#FEC2BE"/>
<path opacity="0.1" d="M598.32 388.484C600.935 394.063 603.103 422.263 604.553 431.198C606.65 427.611 609.184 423.315 610.037 421.976C611.121 420.27 613.735 413.017 615.194 408.833C613.528 404.784 608.929 393.178 608.929 388.906C608.929 383.709 600.528 377.189 600.528 377.189C600.528 377.189 595.228 381.852 598.32 388.484Z" fill="black"/>
<path opacity="0.1" d="M654.696 475.036C654.696 475.036 635.24 466.746 629.493 472.645C623.747 478.543 654.696 475.036 654.696 475.036Z" fill="black"/>
<path opacity="0.1" d="M643.752 478.352C643.752 478.352 663.432 489.407 656.689 491.256C649.946 493.105 643.752 478.352 643.752 478.352Z" fill="black"/>
<path opacity="0.1" d="M584.946 468.739C584.946 468.739 593.347 469.289 590.143 470.947C586.938 472.605 584.946 468.739 584.946 468.739Z" fill="black"/>
<path opacity="0.1" d="M574.44 471.282C574.552 471.832 598.87 479.683 594.12 483.238C589.369 486.792 574.44 471.282 574.44 471.282Z" fill="black"/>
<path opacity="0.1" d="M651.819 538.936C648.176 538.378 627.835 528.98 635.79 535.747C643.745 542.514 651.819 538.936 651.819 538.936Z" fill="black"/>
<path opacity="0.1" d="M641.76 546.34C641.76 546.34 639.991 553.195 633.248 552.31C626.505 551.426 641.76 546.34 641.76 546.34Z" fill="black"/>
<path opacity="0.1" d="M647.403 560.265C646.184 559.938 631.701 553.307 631.374 556.399C631.047 559.492 645.187 564.912 646.295 563.254C646.93 562.377 647.313 561.344 647.403 560.265Z" fill="black"/>
<path opacity="0.1" d="M600.528 552.31C598.759 552.199 582.196 546.891 578.864 551.641L600.528 552.31Z" fill="black"/>
<path opacity="0.1" d="M585.496 555.403C585.496 555.403 582.618 552.86 579.749 554.183C576.879 555.506 585.496 555.403 585.496 555.403Z" fill="black"/>
<path opacity="0.1" d="M622.2 582.822C622.014 583.761 621.56 584.626 620.892 585.312C620.224 585.998 619.372 586.476 618.438 586.687L622.2 582.822Z" fill="black"/>
<path d="M537.848 593.207C538.956 597.743 554.434 598.181 561.839 596.969C569.244 595.758 584.611 591.326 584.611 591.326C584.611 591.326 600.751 589.78 605.502 587.795C610.252 585.811 606.498 580.717 606.498 580.717C606.498 580.717 606.498 580.542 606.498 580.239C606.61 578.39 606.944 571.687 605.805 569.878C604.482 567.773 605.255 560.919 605.255 560.919C605.255 560.919 582.371 565.342 581.925 563.246C581.478 561.15 577.94 558.161 576.29 557.499C574.64 556.838 573.412 563.023 573.412 563.023C573.412 563.023 563.051 571.87 562.357 575.074C561.664 578.278 554.387 579.936 554.387 579.936C554.387 579.936 543.331 583.029 540.454 584.575C539.619 584.968 538.9 585.57 538.366 586.323C537.833 587.075 537.503 587.953 537.409 588.871C537.289 590.331 537.437 591.801 537.848 593.207Z" fill="#CA8496"/>
<path opacity="0.1" d="M537.848 593.207C538.955 597.743 554.434 598.181 561.839 596.969C569.244 595.758 584.611 591.326 584.611 591.326C584.611 591.326 600.751 589.78 605.502 587.795C610.252 585.811 606.498 580.717 606.498 580.717C606.498 580.717 606.498 580.542 606.498 580.239L583.383 585.364C583.383 585.364 571.993 590.226 564.7 590.226C558.324 590.226 544.057 592.833 537.441 588.879C537.311 590.335 537.449 591.802 537.848 593.207Z" fill="black"/>
<path opacity="0.1" d="M569.132 575.744C569.132 575.744 570.24 583.037 574.664 585.468L569.132 575.744Z" fill="black"/>
<path opacity="0.1" d="M598.153 141.572C598.574 141.794 599.014 141.979 599.468 142.122C601.54 142.68 603.565 141.277 605.406 140.161C607.247 139.045 609.79 138.216 611.384 139.667C613.464 141.556 611.958 145.589 614.102 147.414C615.457 148.57 617.609 148.172 619.115 149.12C620.622 150.069 621.076 152.149 621.459 153.942C621.841 155.736 622.606 157.784 624.36 158.31C626.114 158.836 627.747 157.68 629.477 157.744C629.836 157.744 630.274 157.8 630.497 157.545C630.655 157.311 630.715 157.025 630.665 156.748C630.449 154.606 630.641 152.442 631.231 150.371C631.94 148.331 633.622 146.49 635.726 146.163C638.827 145.685 641.433 148.403 643.258 150.945C645.177 153.638 646.923 156.449 648.487 159.362C648.586 159.551 648.674 159.745 648.75 159.944C650.247 156.562 651.033 152.907 651.058 149.208C651.083 145.509 650.347 141.845 648.896 138.442C647.444 135.04 645.308 131.972 642.621 129.43C639.934 126.888 636.752 124.927 633.274 123.666C629.796 122.406 626.097 121.875 622.405 122.106C618.713 122.336 615.108 123.324 611.814 125.007C608.52 126.69 605.607 129.033 603.257 131.889C600.907 134.746 599.17 138.055 598.153 141.612V141.572Z" fill="black"/>
<path d="M643.258 150.499C641.433 147.933 638.827 145.223 635.718 145.717C633.59 146.044 631.948 147.885 631.231 149.917C630.64 151.988 630.45 154.152 630.673 156.294C630.717 156.572 630.654 156.857 630.497 157.091C630.25 157.354 629.836 157.314 629.477 157.298C627.748 157.234 626.026 158.358 624.36 157.864C622.694 157.37 621.841 155.289 621.459 153.496C621.076 151.703 620.662 149.654 619.115 148.674C617.569 147.693 615.457 148.124 614.102 146.96C611.958 145.143 613.472 141.102 611.384 139.213C609.79 137.77 607.247 138.599 605.406 139.715C603.565 140.831 601.54 142.226 599.46 141.668C598.759 141.476 598.129 141.078 597.444 140.815C594.168 139.563 589.919 141.684 587.225 139.436C586.248 138.458 585.544 137.24 585.185 135.905C584.445 134.099 583.944 132.205 583.694 130.27C583.456 128.314 583.994 126.342 585.193 124.778C586.946 122.714 589.911 122.196 592.151 120.673C594.056 119.366 595.339 117.381 596.599 115.429C597.858 113.476 599.078 111.443 600.919 110.064C602.76 108.686 605.342 108 607.399 109.044C608.048 109.497 608.767 109.839 609.527 110.056C610.356 110.067 611.171 109.843 611.878 109.411C619.546 105.8 628.473 106.438 636.882 107.514C640.245 107.944 643.657 108.446 646.725 109.905C649.794 111.364 652.504 113.89 653.365 117.174C654.05 119.773 653.524 122.602 654.353 125.145C654.911 126.882 656.059 128.333 656.744 130.079C658.538 134.741 656.394 139.858 655.485 144.768C654.497 150.132 654.991 155.927 652.711 161.012C652.265 162.009 651.763 163.754 650.639 163.1C649.842 162.614 648.997 159.785 648.519 158.9C646.947 155.99 645.189 153.184 643.258 150.499Z" fill="#9A5E7F"/>
<path opacity="0.1" d="M691.839 236.892L695.824 248.242C695.824 248.242 686.387 283.312 681.963 290.685C677.539 298.058 671.059 307.487 671.059 307.487C671.059 307.487 660.156 312.947 647.475 310.436C634.793 307.925 597.786 301.302 597.786 301.302C597.786 301.302 594.686 301.892 593.068 299.532C591.45 297.173 583.025 295.978 583.025 295.978C583.025 295.978 573.301 281.83 585.24 275.932C585.24 275.932 586.715 279.176 593.052 276.968C599.388 274.76 601.301 278.729 601.301 278.729C601.301 278.729 611.663 280.794 617.37 280.06C623.077 279.327 637.416 279.024 638.89 277.845C639.264 277.517 639.752 277.349 640.248 277.378C640.745 277.406 641.21 277.628 641.544 277.996C641.544 277.996 645.075 276.673 646.255 275.342C647.435 274.011 649.061 276.816 649.061 276.816C649.061 276.816 651.125 275.637 650.535 274.162C649.945 272.688 652.448 267.092 652.448 267.092C652.448 267.092 653.628 263.402 652.895 260.453C652.161 257.504 656.577 246.903 656.577 246.903C656.635 245.114 656.436 243.327 655.987 241.594C655.246 238.948 661.566 233.624 661.566 233.624C661.566 233.624 667.752 203.551 680.871 213.427C693.991 223.302 691.839 236.892 691.839 236.892Z" fill="black"/>
<path d="M692.684 236.892L696.669 248.242C696.669 248.242 687.232 283.312 682.808 290.685C678.384 298.058 671.912 307.487 671.912 307.487C671.912 307.487 661.009 312.947 648.327 310.436C635.646 307.925 598.655 301.302 598.655 301.302C598.655 301.302 595.562 301.892 593.944 299.532C592.326 297.173 583.909 295.978 583.909 295.978C583.909 295.978 574.185 281.83 586.125 275.932C586.125 275.932 587.6 279.176 593.936 276.968C600.273 274.76 602.186 278.729 602.186 278.729C602.186 278.729 612.548 280.794 618.255 280.06C623.961 279.327 638.3 279.024 639.775 277.845C640.149 277.517 640.637 277.349 641.133 277.378C641.629 277.406 642.095 277.628 642.429 277.996C642.429 277.996 645.96 276.673 647.14 275.342C648.319 274.011 649.945 276.816 649.945 276.816C649.945 276.816 652.01 275.637 651.42 274.162C650.83 272.688 653.333 267.092 653.333 267.092C653.333 267.092 654.513 263.402 653.771 260.453C653.03 257.504 657.462 246.903 657.462 246.903C657.519 245.114 657.321 243.327 656.872 241.594C656.131 238.948 662.451 233.624 662.451 233.624C662.451 233.624 668.636 203.551 681.756 213.427C694.875 223.302 692.684 236.892 692.684 236.892Z" fill="#4C4981"/>
<path opacity="0.1" d="M596.886 284.348C597.029 285.385 600.273 289.505 599.094 290.247C597.914 290.988 596.001 290.542 597.77 292.901C599.54 295.26 599.365 298.791 598.209 298.353C597.053 297.914 595.116 292.606 595.116 290.541C595.116 288.477 596.886 284.348 596.886 284.348Z" fill="black"/>
<path opacity="0.1" d="M640.66 281.989C640.66 281.989 641.544 292.311 648.798 295.26C656.051 298.209 640.66 281.989 640.66 281.989Z" fill="black"/>
<path opacity="0.1" d="M655.692 278.442C656.131 278.594 666.006 283.902 661.591 286.995C657.175 290.087 655.692 278.442 655.692 278.442Z" fill="black"/>
<path opacity="0.1" d="M656.282 271.085C656.282 271.085 670.725 274.035 665.847 276.537C660.969 279.04 656.282 271.085 656.282 271.085Z" fill="black"/>
<g opacity="0.1">
<path opacity="0.1" d="M631.263 147.39C631.98 145.358 633.654 143.517 635.75 143.19C638.859 142.712 641.465 145.43 643.29 147.972C645.209 150.665 646.955 153.476 648.519 156.389C648.997 157.274 649.81 160.096 650.639 160.582C651.763 161.243 652.233 159.498 652.711 158.501C654.991 153.432 654.497 147.622 655.485 142.257C656.067 139.125 657.143 135.881 657.382 132.772C657.725 136.63 656.211 140.687 655.485 144.609C654.497 149.973 654.991 155.767 652.711 160.861C652.265 161.857 651.763 163.603 650.639 162.941C649.842 162.455 648.997 159.633 648.519 158.748C646.955 155.835 645.209 153.024 643.29 150.332C641.465 147.773 638.859 145.055 635.75 145.549C633.622 145.876 631.98 147.717 631.263 149.75C630.907 150.821 630.709 151.938 630.673 153.065C630.515 151.154 630.715 149.229 631.263 147.39Z" fill="black"/>
<path opacity="0.1" d="M585.185 133.378C585.543 134.717 586.246 135.937 587.226 136.917C589.92 139.165 594.168 137.045 597.444 138.296C598.129 138.551 598.759 138.958 599.46 139.149C601.541 139.699 603.573 138.304 605.406 137.188C607.24 136.072 609.798 135.251 611.384 136.694C613.473 138.583 611.958 142.616 614.102 144.441C615.457 145.597 617.609 145.239 619.116 146.155C620.622 147.072 621.077 149.176 621.459 150.937C621.842 152.699 622.599 154.779 624.36 155.305C626.122 155.831 627.748 154.684 629.477 154.747C629.836 154.747 630.275 154.803 630.498 154.54C630.55 154.473 630.59 154.398 630.617 154.317C630.617 154.915 630.617 155.505 630.673 156.094C630.717 156.373 630.654 156.657 630.498 156.891C630.251 157.147 629.836 157.107 629.477 157.091C627.748 157.035 626.026 158.151 624.36 157.657C622.695 157.162 621.842 155.09 621.459 153.289C621.077 151.487 620.662 149.447 619.116 148.506C617.569 147.566 615.457 147.948 614.102 146.793C611.958 144.968 613.473 140.926 611.384 139.045C609.79 137.595 607.248 138.424 605.406 139.54C603.565 140.655 601.541 142.05 599.46 141.5C598.759 141.309 598.129 140.903 597.444 140.647C594.168 139.396 589.92 141.516 587.226 139.269C586.248 138.288 585.544 137.067 585.185 135.73C584.447 133.926 583.946 132.035 583.695 130.102C583.639 129.444 583.655 128.781 583.742 128.126C584.02 129.926 584.504 131.689 585.185 133.378Z" fill="black"/>
</g>
<defs>
<linearGradient id="paint0_linear" x1="567.905" y1="214.518" x2="567.905" y2="189.068" gradientUnits="userSpaceOnUse">
<stop stop-color="#808080" stop-opacity="0.25"/>
<stop offset="0.54" stop-color="#808080" stop-opacity="0.12"/>
<stop offset="1" stop-color="#808080" stop-opacity="0.1"/>
</linearGradient>
<linearGradient id="paint1_linear" x1="237504" y1="409077" x2="237504" y2="87193.1" gradientUnits="userSpaceOnUse">
<stop stop-color="#808080" stop-opacity="0.25"/>
<stop offset="0.54" stop-color="#808080" stop-opacity="0.12"/>
<stop offset="1" stop-color="#808080" stop-opacity="0.1"/>
</linearGradient>
</defs>
</svg>
